<?xml version="1.0" encoding="iso-8859-1"?>
<!-- Generator: Adobe Illustrator 22.0.1, SVG Export Plug-In . SVG Version: 6.00 Build 0)  -->
<svg version="1.1" xmlns="http://www.w3.org/2000/svg" xmlns:xlink="http://www.w3.org/1999/xlink" x="0px" y="0px"
	 viewBox="0 0 64 64" style="enable-background:new 0 0 64 64;" xml:space="preserve">
<g id="_x31_4">
	<line style="fill:none;stroke:#AAD15D;stroke-width:3;stroke-miterlimit:10;" x1="36.73" y1="17.54" x2="12.924" y2="64"/>
	<polyline style="fill:none;stroke:#AAD15D;stroke-width:3;stroke-miterlimit:10;" points="13.378,37.57 18.63,52.865 
		34.688,48.489 	"/>
	<polyline style="fill:none;stroke:#AAD15D;stroke-width:3;stroke-miterlimit:10;" points="23.875,19.922 28.27,34.051 
		44.033,30.25 	"/>
	<path style="fill:#90B74B;" d="M24.51,51.262c0,0,1.237-10.869,12.883-8.053c11.646,2.816,10.133,2.93,10.133,2.93
		s-5.777,4.083-8.252,6.783C36.642,55.792,28.118,60.009,24.51,51.262z M48.717,34.492c2.476-2.7,8.252-6.783,8.252-6.783
		s1.513-0.114-10.133-2.93s-12.883,8.053-12.883,8.053C37.562,41.578,46.085,37.362,48.717,34.492z"/>
	<path style="fill:#AAD15D;" d="M7.146,36.46C7.891,32.874,7.831,25.8,7.831,25.8s-0.791-1.294,8.297,6.514
		s0.989,15.161,0.989,15.161C7.91,49.655,6.354,40.273,7.146,36.46z M26.56,29.044c0,0,8.1-7.353-0.989-15.161
		S17.275,7.37,17.275,7.37s0.06,7.074-0.685,10.66C15.797,21.843,17.354,31.224,26.56,29.044z"/>
	<path style="fill:#90B74B;" d="M35.598,19.748c0,0-6.014-14.044,10.118-19.748C50.477,12.707,41.086,20.863,35.598,19.748z"/>
</g>
<g id="Layer_1">
</g>
</svg>
